<svg width="453" height="344" viewBox="0 0 453 344" fill="none" xmlns="http://www.w3.org/2000/svg">
<rect width="452.523" height="266" rx="39" fill="url(#paint0_linear_173_2054)"/>
<path d="M75.0511 81.552L76.7791 83.216V87.136L75.0511 88.704V81.552ZM83.1951 88.704L81.4671 87.056V83.12L83.1951 81.552V88.704ZM76.9071 82.128C76.5338 81.8293 76.1551 81.536 75.7711 81.248L76.9071 80.4H81.2751L82.3951 81.248L81.2751 82.128H76.9071ZM75.0031 80.992V73.84L76.7311 75.392V79.36L75.0031 80.992ZM83.1471 73.84V80.992L81.4191 79.44V75.488L83.1471 73.84ZM87.848 81.552L89.576 83.216V87.136L87.848 88.704V81.552ZM95.992 88.704L94.264 87.056V83.12L95.992 81.552V88.704ZM89.704 82.128C89.3307 81.8293 88.952 81.536 88.568 81.248L89.704 80.4H94.072L95.192 81.248L94.072 82.128H89.704ZM88.312 73.152H95.464L93.88 74.88H89.96L88.312 73.152ZM87.8 80.992V73.84L89.528 75.392V79.36L87.8 80.992ZM95.944 73.84V80.992L94.216 79.44V75.488L95.944 73.84ZM108.245 76.48L101.141 88.16V85.2L104.309 80L105.045 80.784V78.8L108.245 73.552V76.48ZM104.309 80L105.045 78.8V77.84L101.141 73.552V76.624L104.309 80ZM125.503 81.552L127.231 83.216V87.136L125.503 88.704V81.552ZM135.247 88.704L133.519 87.056V83.12L135.247 81.552V88.704ZM130.015 77.456L130.095 78.16L128.703 78.032L125.487 75.04L125.263 73.664L126.655 73.792L129.871 76.752L130.015 77.456ZM125.471 80.992V75.76L127.199 77.328V79.36L125.471 80.992ZM135.215 75.76V80.992L133.487 79.44V77.408L135.215 75.76ZM130.559 77.456L130.703 76.752L133.919 73.792L135.311 73.664L135.087 75.04L131.871 78.032L130.479 78.16L130.559 77.456ZM139.516 89.408L141.164 87.68H145.116L146.668 89.408H139.516ZM139.036 81.552L140.764 83.216V87.136L139.036 88.704V81.552ZM147.18 88.704L145.452 87.056V83.12L147.18 81.552V88.704ZM138.988 80.992V73.84L140.716 75.392V79.36L138.988 80.992ZM147.132 73.84V80.992L145.404 79.44V75.488L147.132 73.84ZM152.552 89.408L154.2 87.68H158.152L159.72 89.408H152.552ZM152.088 81.552L153.8 83.216V87.136L152.088 88.704V81.552ZM152.536 73.152H159.672L158.12 74.88H154.168L152.536 73.152ZM152.04 80.992V73.84L153.752 75.392V79.36L152.04 80.992ZM164.629 81.552L166.357 83.216V87.136L164.629 88.704V81.552ZM172.773 88.704L171.045 87.056V83.12L172.773 81.552V88.704ZM166.485 82.128C166.112 81.8293 165.733 81.536 165.349 81.248L166.485 80.4H170.853L171.973 81.248L170.853 82.128H166.485ZM164.581 80.992V73.84L166.309 75.392V79.36L164.581 80.992ZM172.725 73.84V80.992L170.997 79.44V75.488L172.725 73.84ZM177.906 89.408L179.554 87.68H183.506L185.058 89.408H177.906ZM177.426 81.552L179.154 83.216V87.136L177.426 88.704V81.552ZM185.57 88.704L183.842 87.056V83.12L185.57 81.552V88.704ZM177.89 73.152H185.042L183.458 74.88H179.538L177.89 73.152ZM177.378 80.992V73.84L179.106 75.392V79.36L177.378 80.992ZM185.522 73.84V80.992L183.794 79.44V75.488L185.522 73.84ZM190.703 89.408L192.351 87.68H196.303L197.855 89.408H190.703ZM198.367 88.704L196.639 87.056V83.12L198.367 81.552V88.704ZM192.079 82.128C191.706 81.8293 191.327 81.536 190.943 81.248L192.079 80.4H196.447L197.567 81.248L196.447 82.128H192.079ZM190.687 73.152H197.839L196.255 74.88H192.335L190.687 73.152ZM190.175 80.992V73.84L191.903 75.392V79.36L190.175 80.992ZM215.817 81.552L217.545 83.216V87.136L215.817 88.704V81.552ZM223.961 88.704L222.233 87.056V83.12L223.961 81.552V88.704ZM217.673 82.128C217.299 81.8293 216.921 81.536 216.537 81.248L217.673 80.4H222.041L223.161 81.248L222.041 82.128H217.673ZM216.281 73.152H223.433L221.849 74.88H217.929L216.281 73.152ZM215.769 80.992V73.84L217.497 75.392V79.36L215.769 80.992ZM223.913 73.84V80.992L222.185 79.44V75.488L223.913 73.84ZM229.094 89.408L230.742 87.68H234.694L236.246 89.408H229.094ZM236.758 88.704L235.03 87.056V83.12L236.758 81.552V88.704ZM230.47 82.128C230.096 81.8293 229.718 81.536 229.334 81.248L230.47 80.4H234.838L235.958 81.248L234.838 82.128H230.47ZM229.078 73.152H236.23L234.646 74.88H230.726L229.078 73.152ZM228.566 80.992V73.84L230.294 75.392V79.36L228.566 80.992ZM246.339 88.704L244.611 87.056V83.12L246.339 81.552V88.704ZM240.547 74.592C240.173 74.2933 239.8 74.0107 239.427 73.744L240.547 72.88H250.371L251.491 73.744L250.371 74.592H246.291V80.992L244.563 79.44V75.488L245.507 74.592H240.547ZM254.927 89.408L256.575 87.68H260.527L262.095 89.408H254.927ZM254.463 81.552L256.175 83.216V87.136L254.463 88.704V81.552ZM256.303 82.128C255.909 81.8187 255.535 81.5253 255.183 81.248L256.303 80.4H260.671L261.791 81.248L260.671 82.128H256.303ZM254.911 73.152H262.047L260.495 74.88H256.543L254.911 73.152ZM254.415 80.992V73.84L256.127 75.392V79.36L254.415 80.992ZM268.748 83.6V87.136L267.02 88.704V81.552L268.748 83.6ZM272.316 83.184L274.78 85.776L274.604 88.08C273.079 86.48 272.3 85.664 272.268 85.632C272.247 85.6 272.215 85.568 272.172 85.536C272.13 85.504 272.098 85.472 272.076 85.44L269.66 82.912L272.316 83.184ZM267.02 81.552L268.748 83.216V87.136L267.02 88.704V81.552ZM268.86 82.128C268.487 81.8187 268.114 81.5253 267.74 81.248L268.86 80.4H273.244L274.364 81.248L273.244 82.128H268.86ZM267.484 73.152H274.62L273.068 74.88H269.116L267.484 73.152ZM266.972 80.992V73.84L268.7 75.392V79.36L266.972 80.992ZM275.132 73.84V80.992L273.404 79.44V75.488L275.132 73.84ZM269.66 82.912H272.06C272.412 83.2853 272.914 83.8187 273.564 84.512C274.226 85.1947 274.631 85.616 274.78 85.776L274.604 88.08C273.079 86.48 272.3 85.664 272.268 85.632C272.247 85.6 272.215 85.568 272.172 85.536C272.13 85.504 272.098 85.472 272.076 85.44L269.66 82.912ZM280.281 89.408L281.929 87.68H285.881L287.433 89.408H280.281ZM279.801 81.552L281.529 83.216V87.136L279.801 88.704V81.552ZM287.945 88.704L286.217 87.056V83.12L287.945 81.552V88.704ZM280.265 73.152H287.417L285.833 74.88H281.913L280.265 73.152ZM279.753 80.992V73.84L281.481 75.392V79.36L279.753 80.992ZM287.897 73.84V80.992L286.169 79.44V75.488L287.897 73.84ZM297.526 88.704L295.798 87.056V83.12L297.526 81.552V88.704ZM297.494 73.84V80.992L295.766 79.44V75.488L297.494 73.84ZM305.875 89.408L307.523 87.68H311.475L313.027 89.408H305.875ZM305.395 81.552L307.123 83.216V87.136L305.395 88.704V81.552ZM313.539 88.704L311.811 87.056V83.12L313.539 81.552V88.704ZM305.859 73.152H313.011L311.427 74.88H307.507L305.859 73.152ZM305.347 80.992V73.84L307.075 75.392V79.36L305.347 80.992ZM313.491 73.84V80.992L311.763 79.44V75.488L313.491 73.84ZM318.912 89.408L320.56 87.68H324.512L326.08 89.408H318.912ZM318.448 81.552L320.16 83.216V87.136L318.448 88.704V81.552ZM320.288 82.128C319.893 81.8187 319.52 81.5253 319.168 81.248L320.288 80.4H324.656L325.776 81.248L324.656 82.128H320.288ZM318.896 73.152H326.032L324.48 74.88H320.528L318.896 73.152ZM318.4 80.992V73.84L320.112 75.392V79.36L318.4 80.992ZM331.469 89.408L333.117 87.68H337.069L338.621 89.408H331.469ZM339.133 88.704L337.405 87.056V83.12L339.133 81.552V88.704ZM332.845 82.128C332.471 81.8293 332.093 81.536 331.709 81.248L332.845 80.4H337.213L338.333 81.248L337.213 82.128H332.845ZM331.453 73.152H338.605L337.021 74.88H333.101L331.453 73.152ZM330.941 80.992V73.84L332.669 75.392V79.36L330.941 80.992ZM357.302 89.408L358.95 87.68H362.902L364.47 89.408H357.302ZM356.838 81.552L358.55 83.216V87.136L356.838 88.704V81.552ZM358.678 82.128C358.284 81.8187 357.91 81.5253 357.558 81.248L358.678 80.4H363.046L364.166 81.248L363.046 82.128H358.678ZM357.286 73.152H364.422L362.87 74.88H358.918L357.286 73.152ZM356.79 80.992V73.84L358.502 75.392V79.36L356.79 80.992ZM368.579 80.192V73.008L370.307 74.592V78.544L368.579 80.192ZM378.323 73.008V80.192L376.595 78.608V74.672L378.323 73.008ZM368.531 80.736L370.259 82.384V86.336L368.531 87.904V80.736ZM378.275 87.904L376.547 86.24V82.304L378.275 80.736V87.904ZM371.123 77.744V74.496L375.667 82.144V85.408L371.123 77.744ZM73.4543 101.192V94.008L75.1823 95.592V99.544L73.4543 101.192ZM83.1983 94.008V101.192L81.4703 99.608V95.672L83.1983 94.008ZM73.4063 101.736L75.1343 103.384V107.336L73.4063 108.904V101.736ZM83.1503 108.904L81.4223 107.24V103.304L83.1503 101.736V108.904ZM75.9983 98.744V95.496L80.5423 103.144V106.408L75.9983 98.744ZM87.5311 110.408L89.1791 108.68H93.1311L94.6831 110.408H87.5311ZM87.0511 102.552L88.7791 104.216V108.136L87.0511 109.704V102.552ZM95.1951 109.704L93.4671 108.056V104.12L95.1951 102.552V109.704ZM87.0031 101.992V94.84L88.7311 96.392V100.36L87.0031 101.992ZM95.1471 94.84V101.992L93.4191 100.44V96.488L95.1471 94.84ZM100.568 110.408L102.216 108.68H106.168L107.736 110.408H100.568ZM100.104 102.552L101.816 104.216V108.136L100.104 109.704V102.552ZM101.944 103.128C101.549 102.819 101.176 102.525 100.824 102.248L101.944 101.4H106.312L107.432 102.248L106.312 103.128H101.944ZM100.552 94.152H107.688L106.136 95.88H102.184L100.552 94.152ZM100.056 101.992V94.84L101.768 96.392V100.36L100.056 101.992ZM113.125 110.408L114.773 108.68H118.725L120.277 110.408H113.125ZM120.789 109.704L119.061 108.056V104.12L120.789 102.552V109.704ZM114.501 103.128C114.128 102.829 113.749 102.536 113.365 102.248L114.501 101.4H118.869L119.989 102.248L118.869 103.128H114.501ZM113.109 94.152H120.261L118.677 95.88H114.757L113.109 94.152ZM112.597 101.992V94.84L114.325 96.392V100.36L112.597 101.992ZM130.37 109.704L128.642 108.056V104.12L130.37 102.552V109.704ZM124.578 95.592C124.204 95.2933 123.831 95.0107 123.458 94.744L124.578 93.88H134.402L135.522 94.744L134.402 95.592H130.322V101.992L128.594 100.44V96.488L129.538 95.592H124.578ZM139.983 104.6V108.136L138.255 109.704V102.552L139.983 104.6ZM143.551 104.184L146.015 106.776L145.839 109.08C144.313 107.48 143.535 106.664 143.503 106.632C143.481 106.6 143.449 106.568 143.407 106.536C143.364 106.504 143.332 106.472 143.311 106.44L140.895 103.912L143.551 104.184ZM138.255 102.552L139.983 104.216V108.136L138.255 109.704V102.552ZM140.095 103.128C139.721 102.819 139.348 102.525 138.975 102.248L140.095 101.4H144.479L145.599 102.248L144.479 103.128H140.095ZM138.719 94.152H145.855L144.303 95.88H140.351L138.719 94.152ZM138.207 101.992V94.84L139.935 96.392V100.36L138.207 101.992ZM146.367 94.84V101.992L144.639 100.44V96.488L146.367 94.84ZM140.895 103.912H143.295C143.647 104.285 144.148 104.819 144.799 105.512C145.46 106.195 145.865 106.616 146.015 106.776L145.839 109.08C144.313 107.48 143.535 106.664 143.503 106.632C143.481 106.6 143.449 106.568 143.407 106.536C143.364 106.504 143.332 106.472 143.311 106.44L140.895 103.912ZM151.516 110.408L153.164 108.68H157.116L158.668 110.408H151.516ZM151.036 102.552L152.764 104.216V108.136L151.036 109.704V102.552ZM159.18 109.704L157.452 108.056V104.12L159.18 102.552V109.704ZM151.5 94.152H158.652L157.068 95.88H153.148L151.5 94.152ZM150.988 101.992V94.84L152.716 96.392V100.36L150.988 101.992ZM159.132 94.84V101.992L157.404 100.44V96.488L159.132 94.84ZM177.109 110.408L178.757 108.68H182.709L184.261 110.408H177.109ZM184.773 109.704L183.045 108.056V104.12L184.773 102.552V109.704ZM178.485 103.128C178.112 102.829 177.733 102.536 177.349 102.248L178.485 101.4H182.853L183.973 102.248L182.853 103.128H178.485ZM177.093 94.152H184.245L182.661 95.88H178.741L177.093 94.152ZM176.581 101.992V94.84L178.309 96.392V100.36L176.581 101.992ZM194.354 109.704L192.626 108.056V104.12L194.354 102.552V109.704ZM194.322 94.84V101.992L192.594 100.44V96.488L194.322 94.84ZM202.703 110.408L204.351 108.68H208.303L209.855 110.408H202.703ZM210.367 109.704L208.639 108.056V104.12L210.367 102.552V109.704ZM204.079 103.128C203.706 102.829 203.327 102.536 202.943 102.248L204.079 101.4H208.447L209.567 102.248L208.447 103.128H204.079ZM202.687 94.152H209.839L208.255 95.88H204.335L202.687 94.152ZM202.175 101.992V94.84L203.903 96.392V100.36L202.175 101.992ZM219.948 109.704L218.22 108.056V104.12L219.948 102.552V109.704ZM214.156 95.592C213.783 95.2933 213.409 95.0107 213.036 94.744L214.156 93.88H223.98L225.1 94.744L223.98 95.592H219.9V101.992L218.172 100.44V96.488L219.116 95.592H214.156ZM228.537 110.408L230.185 108.68H234.137L235.705 110.408H228.537ZM228.073 102.552L229.785 104.216V108.136L228.073 109.704V102.552ZM229.913 103.128C229.518 102.819 229.145 102.525 228.793 102.248L229.913 101.4H234.281L235.401 102.248L234.281 103.128H229.913ZM228.521 94.152H235.657L234.105 95.88H230.153L228.521 94.152ZM228.025 101.992V94.84L229.737 96.392V100.36L228.025 101.992ZM239.878 102.552L241.606 104.216V108.136L239.878 109.704V102.552ZM249.622 109.704L247.894 108.056V104.12L249.622 102.552V109.704ZM244.39 98.456L244.47 99.16L243.078 99.032L239.862 96.04L239.638 94.664L241.03 94.792L244.246 97.752L244.39 98.456ZM239.846 101.992V96.76L241.574 98.328V100.36L239.846 101.992ZM249.59 96.76V101.992L247.862 100.44V98.408L249.59 96.76ZM244.934 98.456L245.078 97.752L248.294 94.792L249.686 94.664L249.462 96.04L246.246 99.032L244.854 99.16L244.934 98.456ZM253.411 102.552L255.139 104.216V108.136L253.411 109.704V102.552ZM261.555 109.704L259.827 108.056V104.12L261.555 102.552V109.704ZM255.267 103.128C254.893 102.829 254.515 102.536 254.131 102.248L255.267 101.4H259.635L260.755 102.248L259.635 103.128H255.267ZM253.875 94.152H261.027L259.443 95.88H255.523L253.875 94.152ZM253.363 101.992V94.84L255.091 96.392V100.36L253.363 101.992ZM261.507 94.84V101.992L259.779 100.44V96.488L261.507 94.84ZM279.484 110.408L281.132 108.68H285.084L286.636 110.408H279.484ZM287.148 109.704L285.42 108.056V104.12L287.148 102.552V109.704ZM280.86 103.128C280.487 102.829 280.108 102.536 279.724 102.248L280.86 101.4H285.228L286.348 102.248L285.228 103.128H280.86ZM279.468 94.152H286.62L285.036 95.88H281.116L279.468 94.152ZM278.956 101.992V94.84L280.684 96.392V100.36L278.956 101.992ZM292.281 110.408L293.929 108.68H297.881L299.433 110.408H292.281ZM291.801 102.552L293.529 104.216V108.136L291.801 109.704V102.552ZM299.945 109.704L298.217 108.056V104.12L299.945 102.552V109.704ZM292.265 94.152H299.417L297.833 95.88H293.913L292.265 94.152ZM291.753 101.992V94.84L293.481 96.392V100.36L291.753 101.992ZM299.897 94.84V101.992L298.169 100.44V96.488L299.897 94.84ZM305.318 110.408L306.966 108.68H310.918L312.486 110.408H305.318ZM304.854 102.552L306.566 104.216V108.136L304.854 109.704V102.552ZM304.806 101.992V94.84L306.518 96.392V100.36L304.806 101.992ZM317.395 102.552L319.123 104.216V108.136L317.395 109.704V102.552ZM325.539 109.704L323.811 108.056V104.12L325.539 102.552V109.704ZM319.251 103.128C318.878 102.829 318.499 102.536 318.115 102.248L319.251 101.4H323.619L324.739 102.248L323.619 103.128H319.251ZM317.859 94.152H325.011L323.427 95.88H319.507L317.859 94.152ZM317.347 101.992V94.84L319.075 96.392V100.36L317.347 101.992ZM325.491 94.84V101.992L323.763 100.44V96.488L325.491 94.84ZM331.936 104.6V108.136L330.208 109.704V102.552L331.936 104.6ZM335.504 104.184L337.968 106.776L337.792 109.08C336.266 107.48 335.488 106.664 335.456 106.632C335.434 106.6 335.402 106.568 335.36 106.536C335.317 106.504 335.285 106.472 335.264 106.44L332.848 103.912L335.504 104.184ZM330.208 102.552L331.936 104.216V108.136L330.208 109.704V102.552ZM332.048 103.128C331.674 102.819 331.301 102.525 330.928 102.248L332.048 101.4H336.432L337.552 102.248L336.432 103.128H332.048ZM330.672 94.152H337.808L336.256 95.88H332.304L330.672 94.152ZM330.16 101.992V94.84L331.888 96.392V100.36L330.16 101.992ZM338.32 94.84V101.992L336.592 100.44V96.488L338.32 94.84ZM332.848 103.912H335.248C335.6 104.285 336.101 104.819 336.752 105.512C337.413 106.195 337.818 106.616 337.968 106.776L337.792 109.08C336.266 107.48 335.488 106.664 335.456 106.632C335.434 106.6 335.402 106.568 335.36 106.536C335.317 106.504 335.285 106.472 335.264 106.44L332.848 103.912ZM340.637 108.04H342.653V110.088H340.637V108.04ZM358.099 110.408L359.747 108.68H363.699L365.267 110.408H358.099ZM357.635 102.552L359.347 104.216V108.136L357.635 109.704V102.552ZM357.587 101.992V94.84L359.299 96.392V100.36L357.587 101.992ZM370.176 102.552L371.904 104.216V108.136L370.176 109.704V102.552ZM378.32 109.704L376.592 108.056V104.12L378.32 102.552V109.704ZM372.032 103.128C371.659 102.829 371.28 102.536 370.896 102.248L372.032 101.4H376.4L377.52 102.248L376.4 103.128H372.032ZM370.64 94.152H377.792L376.208 95.88H372.288L370.64 94.152ZM370.128 101.992V94.84L371.856 96.392V100.36L370.128 101.992ZM378.272 94.84V101.992L376.544 100.44V96.488L378.272 94.84ZM55.1198 123.552L56.8478 125.216V129.136L55.1198 130.704V123.552ZM64.8638 130.704L63.1358 129.056V125.12L64.8638 123.552V130.704ZM59.6318 119.456L59.7118 120.16L58.3198 120.032L55.1038 117.04L54.8798 115.664L56.2718 115.792L59.4878 118.752L59.6318 119.456ZM55.0878 122.992V117.76L56.8158 119.328V121.36L55.0878 122.992ZM64.8318 117.76V122.992L63.1038 121.44V119.408L64.8318 117.76ZM60.1758 119.456L60.3198 118.752L63.5358 115.792L64.9278 115.664L64.7038 117.04L61.4878 120.032L60.0958 120.16L60.1758 119.456ZM68.6527 123.552L70.3807 125.216V129.136L68.6527 130.704V123.552ZM76.7967 130.704L75.0687 129.056V125.12L76.7967 123.552V130.704ZM70.5087 124.128C70.1354 123.829 69.7567 123.536 69.3727 123.248L70.5087 122.4H74.8767L75.9967 123.248L74.8767 124.128H70.5087ZM69.1167 115.152H76.2687L74.6847 116.88H70.7647L69.1167 115.152ZM68.6047 122.992V115.84L70.3327 117.392V121.36L68.6047 122.992ZM76.7487 115.84V122.992L75.0207 121.44V117.488L76.7487 115.84ZM89.0496 118.48L81.9456 130.16V127.2L85.1136 122L85.8496 122.784V120.8L89.0496 115.552V118.48ZM85.1136 122L85.8496 120.8V119.84L81.9456 115.552V118.624L85.1136 122ZM94.7265 131.408L96.3745 129.68H100.326L101.878 131.408H94.7265ZM94.2465 123.552L95.9745 125.216V129.136L94.2465 130.704V123.552ZM102.39 130.704L100.662 129.056V125.12L102.39 123.552V130.704ZM94.7105 115.152H101.862L100.278 116.88H96.3585L94.7105 115.152ZM94.1985 122.992V115.84L95.9265 117.392V121.36L94.1985 122.992ZM102.342 115.84V122.992L100.614 121.44V117.488L102.342 115.84ZM108.787 125.6V129.136L107.059 130.704V123.552L108.787 125.6ZM112.355 125.184L114.819 127.776L114.643 130.08C113.118 128.48 112.339 127.664 112.307 127.632C112.286 127.6 112.254 127.568 112.211 127.536C112.169 127.504 112.137 127.472 112.115 127.44L109.699 124.912L112.355 125.184ZM107.059 123.552L108.787 125.216V129.136L107.059 130.704V123.552ZM108.899 124.128C108.526 123.819 108.153 123.525 107.779 123.248L108.899 122.4H113.283L114.403 123.248L113.283 124.128H108.899ZM107.523 115.152H114.659L113.107 116.88H109.155L107.523 115.152ZM107.011 122.992V115.84L108.739 117.392V121.36L107.011 122.992ZM115.171 115.84V122.992L113.443 121.44V117.488L115.171 115.84ZM109.699 124.912H112.099C112.451 125.285 112.953 125.819 113.603 126.512C114.265 127.195 114.67 127.616 114.819 127.776L114.643 130.08C113.118 128.48 112.339 127.664 112.307 127.632C112.286 127.6 112.254 127.568 112.211 127.536C112.169 127.504 112.137 127.472 112.115 127.44L109.699 124.912ZM126.704 130.704L124.96 129.056V125.12L126.704 123.552V130.704ZM126.656 115.84V122.992L124.928 121.44V117.488L126.656 115.84ZM123.056 112.656L124.816 113.68L122.848 117.072L121.072 116.08L123.056 112.656ZM132.637 123.552L134.365 125.216V129.136L132.637 130.704V123.552ZM140.781 130.704L139.053 129.056V125.12L140.781 123.552V130.704ZM134.493 124.128C134.12 123.829 133.741 123.536 133.357 123.248L134.493 122.4H138.861L139.981 123.248L138.861 124.128H134.493ZM133.101 115.152H140.253L138.669 116.88H134.749L133.101 115.152ZM132.589 122.992V115.84L134.317 117.392V121.36L132.589 122.992ZM140.733 115.84V122.992L139.005 121.44V117.488L140.733 115.84ZM168.551 119.424L163.047 130.304V126.24L168.551 115.408V119.424ZM156.007 119.424V115.408L161.511 126.24V130.304L156.007 119.424ZM175.956 130.704L174.228 129.056V125.12L175.956 123.552V130.704ZM175.924 115.84V122.992L174.196 121.44V117.488L175.924 115.84ZM194.145 119.424L188.641 130.304V126.24L194.145 115.408V119.424ZM181.601 119.424V115.408L187.105 126.24V130.304L181.601 119.424ZM197.341 131.408L198.989 129.68H202.941L204.509 131.408H197.341ZM196.877 123.552L198.589 125.216V129.136L196.877 130.704V123.552ZM198.717 124.128C198.323 123.819 197.949 123.525 197.597 123.248L198.717 122.4H203.085L204.205 123.248L203.085 124.128H198.717ZM197.325 115.152H204.461L202.909 116.88H198.957L197.325 115.152ZM196.829 122.992V115.84L198.541 117.392V121.36L196.829 122.992ZM222.935 131.408L224.583 129.68H228.535L230.103 131.408H222.935ZM222.471 123.552L224.183 125.216V129.136L222.471 130.704V123.552ZM224.311 124.128C223.917 123.819 223.543 123.525 223.191 123.248L224.311 122.4H228.679L229.799 123.248L228.679 124.128H224.311ZM222.919 115.152H230.055L228.503 116.88H224.551L222.919 115.152ZM222.423 122.992V115.84L224.135 117.392V121.36L222.423 122.992ZM234.212 122.192V115.008L235.94 116.592V120.544L234.212 122.192ZM243.956 115.008V122.192L242.228 120.608V116.672L243.956 115.008ZM234.164 122.736L235.892 124.384V128.336L234.164 129.904V122.736ZM243.908 129.904L242.18 128.24V124.304L243.908 122.736V129.904ZM236.756 119.744V116.496L241.3 124.144V127.408L236.756 119.744ZM261.326 131.408L262.974 129.68H266.926L268.494 131.408H261.326ZM260.862 123.552L262.574 125.216V129.136L260.862 130.704V123.552ZM262.702 124.128C262.307 123.819 261.934 123.525 261.582 123.248L262.702 122.4H267.07L268.19 123.248L267.07 124.128H262.702ZM261.31 115.152H268.446L266.894 116.88H262.942L261.31 115.152ZM260.814 122.992V115.84L262.526 117.392V121.36L260.814 122.992ZM274.123 131.408L275.771 129.68H279.723L281.291 131.408H274.123ZM273.659 123.552L275.371 125.216V129.136L273.659 130.704V123.552ZM273.611 122.992V115.84L275.323 117.392V121.36L273.611 122.992ZM299.716 131.408L301.364 129.68H305.316L306.884 131.408H299.716ZM299.252 123.552L300.964 125.216V129.136L299.252 130.704V123.552ZM299.7 115.152H306.836L305.284 116.88H301.332L299.7 115.152ZM299.204 122.992V115.84L300.916 117.392V121.36L299.204 122.992ZM316.721 130.704L314.993 129.056V125.12L316.721 123.552V130.704ZM316.689 115.84V122.992L314.961 121.44V117.488L316.689 115.84ZM323.79 122.192V115.008L325.518 116.592V120.544L323.79 122.192ZM333.534 115.008V122.192L331.806 120.608V116.672L333.534 115.008ZM323.742 122.736L325.47 124.384V128.336L323.742 129.904V122.736ZM333.486 129.904L331.758 128.24V124.304L333.486 122.736V129.904ZM326.334 119.744V116.496L330.878 124.144V127.408L326.334 119.744ZM342.315 130.704L340.587 129.056V125.12L342.315 123.552V130.704ZM336.523 116.592C336.15 116.293 335.776 116.011 335.403 115.744L336.523 114.88H346.347L347.467 115.744L346.347 116.592H342.267V122.992L340.539 121.44V117.488L341.483 116.592H336.523ZM350.664 131.408L352.312 129.68H356.264L357.816 131.408H350.664ZM350.184 123.552L351.912 125.216V129.136L350.184 130.704V123.552ZM358.328 130.704L356.6 129.056V125.12L358.328 123.552V130.704ZM350.136 122.992V115.84L351.864 117.392V121.36L350.136 122.992ZM358.28 115.84V122.992L356.552 121.44V117.488L358.28 115.84ZM364.725 125.6V129.136L362.997 130.704V123.552L364.725 125.6ZM368.293 125.184L370.757 127.776L370.581 130.08C369.056 128.48 368.277 127.664 368.245 127.632C368.224 127.6 368.192 127.568 368.149 127.536C368.106 127.504 368.074 127.472 368.053 127.44L365.637 124.912L368.293 125.184ZM362.997 123.552L364.725 125.216V129.136L362.997 130.704V123.552ZM364.837 124.128C364.464 123.819 364.09 123.525 363.717 123.248L364.837 122.4H369.221L370.341 123.248L369.221 124.128H364.837ZM363.461 115.152H370.597L369.045 116.88H365.093L363.461 115.152ZM362.949 122.992V115.84L364.677 117.392V121.36L362.949 122.992ZM371.109 115.84V122.992L369.381 121.44V117.488L371.109 115.84ZM365.637 124.912H368.037C368.389 125.285 368.89 125.819 369.541 126.512C370.202 127.195 370.608 127.616 370.757 127.776L370.581 130.08C369.056 128.48 368.277 127.664 368.245 127.632C368.224 127.6 368.192 127.568 368.149 127.536C368.106 127.504 368.074 127.472 368.053 127.44L365.637 124.912ZM376.258 131.408L377.906 129.68H381.858L383.41 131.408H376.258ZM375.778 123.552L377.506 125.216V129.136L375.778 130.704V123.552ZM383.922 130.704L382.194 129.056V125.12L383.922 123.552V130.704ZM375.73 122.992V115.84L377.458 117.392V121.36L375.73 122.992ZM383.874 115.84V122.992L382.146 121.44V117.488L383.874 115.84ZM380.274 112.656L382.018 113.68L381.17 115.152H383.394L381.81 116.88H380.162L380.05 117.072L379.714 116.88H377.89L376.242 115.152H378.834L380.274 112.656ZM387.775 122.192V115.008L389.503 116.592V120.544L387.775 122.192ZM397.519 115.008V122.192L395.791 120.608V116.672L397.519 115.008ZM387.727 122.736L389.455 124.384V128.336L387.727 129.904V122.736ZM397.471 129.904L395.743 128.24V124.304L397.471 122.736V129.904ZM390.319 119.744V116.496L394.863 124.144V127.408L390.319 119.744ZM48.6765 144.552L50.4045 146.216V150.136L48.6765 151.704V144.552ZM50.5165 145.128C50.1432 144.819 49.7699 144.525 49.3965 144.248L50.5165 143.4H54.9005L56.0205 144.248L54.9005 145.128H50.5165ZM49.1405 136.152H56.2765L54.7245 137.88H50.7725L49.1405 136.152ZM48.6285 143.992V136.84L50.3565 138.392V142.36L48.6285 143.992ZM56.7885 136.84V143.992L55.0605 142.44V138.488L56.7885 136.84ZM63.2014 146.6V150.136L61.4734 151.704V144.552L63.2014 146.6ZM66.7694 146.184L69.2334 148.776L69.0574 151.08C67.5321 149.48 66.7534 148.664 66.7214 148.632C66.7001 148.6 66.6681 148.568 66.6254 148.536C66.5827 148.504 66.5507 148.472 66.5294 148.44L64.1134 145.912L66.7694 146.184ZM61.4734 144.552L63.2014 146.216V150.136L61.4734 151.704V144.552ZM63.3134 145.128C62.9401 144.819 62.5667 144.525 62.1934 144.248L63.3134 143.4H67.6974L68.8174 144.248L67.6974 145.128H63.3134ZM61.9374 136.152H69.0734L67.5214 137.88H63.5694L61.9374 136.152ZM61.4254 143.992V136.84L63.1534 138.392V142.36L61.4254 143.992ZM69.5854 136.84V143.992L67.8574 142.44V138.488L69.5854 136.84ZM64.1134 145.912H66.5134C66.8654 146.285 67.3667 146.819 68.0174 147.512C68.6787 148.195 69.0841 148.616 69.2334 148.776L69.0574 151.08C67.5321 149.48 66.7534 148.664 66.7214 148.632C66.7001 148.6 66.6681 148.568 66.6254 148.536C66.5827 148.504 66.5507 148.472 66.5294 148.44L64.1134 145.912ZM79.1823 151.704L77.4543 150.056V146.12L79.1823 144.552V151.704ZM79.1503 136.84V143.992L77.4223 142.44V138.488L79.1503 136.84ZM86.2511 143.192V136.008L87.9791 137.592V141.544L86.2511 143.192ZM95.9951 136.008V143.192L94.2671 141.608V137.672L95.9951 136.008ZM86.2031 143.736L87.9311 145.384V149.336L86.2031 150.904V143.736ZM95.9471 150.904L94.2191 149.24V145.304L95.9471 143.736V150.904ZM88.7951 140.744V137.496L93.3391 145.144V148.408L88.7951 140.744ZM100.568 152.408L102.216 150.68H106.168L107.736 152.408H100.568ZM100.104 144.552L101.816 146.216V150.136L100.104 151.704V144.552ZM100.552 136.152H107.688L106.136 137.88H102.184L100.552 136.152ZM100.056 143.992V136.84L101.768 138.392V142.36L100.056 143.992ZM117.573 151.704L115.845 150.056V146.12L117.573 144.552V151.704ZM117.541 136.84V143.992L115.813 142.44V138.488L117.541 136.84ZM125.458 144.552L127.186 146.216V150.136L125.458 151.704V144.552ZM127.298 145.128C126.924 144.819 126.551 144.525 126.178 144.248L127.298 143.4H131.682L132.802 144.248L131.682 145.128H127.298ZM125.922 136.152H133.058L131.506 137.88H127.554L125.922 136.152ZM125.41 143.992V136.84L127.138 138.392V142.36L125.41 143.992ZM133.57 136.84V143.992L131.842 142.44V138.488L133.57 136.84ZM138.239 144.552L139.967 146.216V150.136L138.239 151.704V144.552ZM146.383 151.704L144.655 150.056V146.12L146.383 144.552V151.704ZM140.095 145.128C139.721 144.829 139.343 144.536 138.959 144.248L140.095 143.4H144.463L145.583 144.248L144.463 145.128H140.095ZM138.703 136.152H145.855L144.271 137.88H140.351L138.703 136.152ZM138.191 143.992V136.84L139.919 138.392V142.36L138.191 143.992ZM146.335 136.84V143.992L144.607 142.44V138.488L146.335 136.84ZM151.756 152.408L153.404 150.68H157.356L158.924 152.408H151.756ZM151.292 144.552L153.004 146.216V150.136L151.292 151.704V144.552ZM151.244 143.992V136.84L152.956 138.392V142.36L151.244 143.992ZM177.109 152.408L178.757 150.68H182.709L184.261 152.408H177.109ZM176.629 144.552L178.357 146.216V150.136L176.629 151.704V144.552ZM184.773 151.704L183.045 150.056V146.12L184.773 144.552V151.704ZM177.093 136.152H184.245L182.661 137.88H178.741L177.093 136.152ZM176.581 143.992V136.84L178.309 138.392V142.36L176.581 143.992ZM184.725 136.84V143.992L182.997 142.44V138.488L184.725 136.84ZM190.146 152.408L191.794 150.68H195.746L197.314 152.408H190.146ZM189.682 144.552L191.394 146.216V150.136L189.682 151.704V144.552ZM191.522 145.128C191.127 144.819 190.754 144.525 190.402 144.248L191.522 143.4H195.89L197.01 144.248L195.89 145.128H191.522ZM190.13 136.152H197.266L195.714 137.88H191.762L190.13 136.152ZM189.634 143.992V136.84L191.346 138.392V142.36L189.634 143.992ZM215.02 144.552L216.748 146.216V150.136L215.02 151.704V144.552ZM223.164 151.704L221.436 150.056V146.12L223.164 144.552V151.704ZM216.876 145.128C216.503 144.829 216.124 144.536 215.74 144.248L216.876 143.4H221.244L222.364 144.248L221.244 145.128H216.876ZM215.484 136.152H222.636L221.052 137.88H217.132L215.484 136.152ZM214.972 143.992V136.84L216.7 138.392V142.36L214.972 143.992ZM223.116 136.84V143.992L221.388 142.44V138.488L223.116 136.84ZM228.297 152.408L229.945 150.68H233.897L235.449 152.408H228.297ZM235.961 151.704L234.233 150.056V146.12L235.961 144.552V151.704ZM229.673 145.128C229.299 144.829 228.921 144.536 228.537 144.248L229.673 143.4H234.041L235.161 144.248L234.041 145.128H229.673ZM228.281 136.152H235.433L233.849 137.88H229.929L228.281 136.152ZM227.769 143.992V136.84L229.497 138.392V142.36L227.769 143.992ZM245.542 151.704L243.814 150.056V146.12L245.542 144.552V151.704ZM239.75 137.592C239.376 137.293 239.003 137.011 238.63 136.744L239.75 135.88H249.574L250.694 136.744L249.574 137.592H245.494V143.992L243.766 142.44V138.488L244.71 137.592H239.75ZM254.131 152.408L255.779 150.68H259.731L261.299 152.408H254.131ZM253.667 144.552L255.379 146.216V150.136L253.667 151.704V144.552ZM255.507 145.128C255.112 144.819 254.739 144.525 254.387 144.248L255.507 143.4H259.875L260.995 144.248L259.875 145.128H255.507ZM254.115 136.152H261.251L259.699 137.88H255.747L254.115 136.152ZM253.619 143.992V136.84L255.331 138.392V142.36L253.619 143.992ZM267.951 146.6V150.136L266.223 151.704V144.552L267.951 146.6ZM271.519 146.184L273.983 148.776L273.807 151.08C272.282 149.48 271.503 148.664 271.471 148.632C271.45 148.6 271.418 148.568 271.375 148.536C271.333 148.504 271.301 148.472 271.279 148.44L268.863 145.912L271.519 146.184ZM266.223 144.552L267.951 146.216V150.136L266.223 151.704V144.552ZM268.063 145.128C267.69 144.819 267.317 144.525 266.943 144.248L268.063 143.4H272.447L273.567 144.248L272.447 145.128H268.063ZM266.687 136.152H273.823L272.271 137.88H268.319L266.687 136.152ZM266.175 143.992V136.84L267.903 138.392V142.36L266.175 143.992ZM274.335 136.84V143.992L272.607 142.44V138.488L274.335 136.84ZM268.863 145.912H271.263C271.615 146.285 272.117 146.819 272.767 147.512C273.429 148.195 273.834 148.616 273.983 148.776L273.807 151.08C272.282 149.48 271.503 148.664 271.471 148.632C271.45 148.6 271.418 148.568 271.375 148.536C271.333 148.504 271.301 148.472 271.279 148.44L268.863 145.912ZM279.484 152.408L281.132 150.68H285.084L286.636 152.408H279.484ZM279.004 144.552L280.732 146.216V150.136L279.004 151.704V144.552ZM287.148 151.704L285.42 150.056V146.12L287.148 144.552V151.704ZM279.468 136.152H286.62L285.036 137.88H281.116L279.468 136.152ZM278.956 143.992V136.84L280.684 138.392V142.36L278.956 143.992ZM287.1 136.84V143.992L285.372 142.44V138.488L287.1 136.84ZM296.729 151.704L295.001 150.056V146.12L296.729 144.552V151.704ZM296.697 136.84V143.992L294.969 142.44V138.488L296.697 136.84ZM305.078 152.408L306.726 150.68H310.678L312.23 152.408H305.078ZM304.598 144.552L306.326 146.216V150.136L304.598 151.704V144.552ZM312.742 151.704L311.014 150.056V146.12L312.742 144.552V151.704ZM305.062 136.152H312.214L310.63 137.88H306.71L305.062 136.152ZM304.55 143.992V136.84L306.278 138.392V142.36L304.55 143.992ZM312.694 136.84V143.992L310.966 142.44V138.488L312.694 136.84ZM318.115 152.408L319.763 150.68H323.715L325.283 152.408H318.115ZM317.651 144.552L319.363 146.216V150.136L317.651 151.704V144.552ZM319.491 145.128C319.096 144.819 318.723 144.525 318.371 144.248L319.491 143.4H323.859L324.979 144.248L323.859 145.128H319.491ZM318.099 136.152H325.235L323.683 137.88H319.731L318.099 136.152ZM317.603 143.992V136.84L319.315 138.392V142.36L317.603 143.992ZM330.672 152.408L332.32 150.68H336.272L337.824 152.408H330.672ZM338.336 151.704L336.608 150.056V146.12L338.336 144.552V151.704ZM332.048 145.128C331.674 144.829 331.296 144.536 330.912 144.248L332.048 143.4H336.416L337.536 144.248L336.416 145.128H332.048ZM330.656 136.152H337.808L336.224 137.88H332.304L330.656 136.152ZM330.144 143.992V136.84L331.872 138.392V142.36L330.144 143.992ZM353.434 147.496H355.466V149.544H353.434V147.496ZM355.482 150.072C355.247 150.168 355.023 150.333 354.81 150.568C354.607 150.803 354.442 151.048 354.314 151.304C354.186 151.571 354.074 151.827 353.978 152.072C353.882 152.317 353.802 152.52 353.738 152.68C353.674 152.84 353.626 152.92 353.594 152.92C353.551 152.92 353.519 152.733 353.498 152.36C353.487 151.987 353.471 151.224 353.45 150.072H355.482ZM370.656 152.408L372.304 150.68H376.256L377.808 152.408H370.656ZM370.176 144.552L371.904 146.216V150.136L370.176 151.704V144.552ZM378.32 151.704L376.592 150.056V146.12L378.32 144.552V151.704ZM370.128 143.992V136.84L371.856 138.392V142.36L370.128 143.992ZM378.272 136.84V143.992L376.544 142.44V138.488L378.272 136.84ZM382.173 143.192V136.008L383.901 137.592V141.544L382.173 143.192ZM391.917 136.008V143.192L390.189 141.608V137.672L391.917 136.008ZM382.125 143.736L383.853 145.384V149.336L382.125 150.904V143.736ZM391.869 150.904L390.141 149.24V145.304L391.869 143.736V150.904ZM384.717 140.744V137.496L389.261 145.144V148.408L384.717 140.744ZM395.77 144.552L397.498 146.216V150.136L395.77 151.704V144.552ZM403.914 151.704L402.186 150.056V146.12L403.914 144.552V151.704ZM397.626 145.128C397.253 144.829 396.874 144.536 396.49 144.248L397.626 143.4H401.994L403.114 144.248L401.994 145.128H397.626ZM396.234 136.152H403.386L401.802 137.88H397.882L396.234 136.152ZM395.722 143.992V136.84L397.45 138.392V142.36L395.722 143.992ZM403.866 136.84V143.992L402.138 142.44V138.488L403.866 136.84ZM57.5998 167.6V171.136L55.8718 172.704V165.552L57.5998 167.6ZM61.1678 167.184L63.6318 169.776L63.4558 172.08C61.9305 170.48 61.1518 169.664 61.1198 169.632C61.0985 169.6 61.0665 169.568 61.0238 169.536C60.9812 169.504 60.9492 169.472 60.9278 169.44L58.5118 166.912L61.1678 167.184ZM55.8718 165.552L57.5998 167.216V171.136L55.8718 172.704V165.552ZM57.7118 166.128C57.3385 165.819 56.9652 165.525 56.5918 165.248L57.7118 164.4H62.0958L63.2158 165.248L62.0958 166.128H57.7118ZM56.3358 157.152H63.4718L61.9198 158.88H57.9678L56.3358 157.152ZM55.8238 164.992V157.84L57.5518 159.392V163.36L55.8238 164.992ZM63.9838 157.84V164.992L62.2558 163.44V159.488L63.9838 157.84ZM58.5118 166.912H60.9118C61.2638 167.285 61.7652 167.819 62.4158 168.512C63.0772 169.195 63.4825 169.616 63.6318 169.776L63.4558 172.08C61.9305 170.48 61.1518 169.664 61.1198 169.632C61.0985 169.6 61.0665 169.568 61.0238 169.536C60.9812 169.504 60.9492 169.472 60.9278 169.44L58.5118 166.912ZM69.3727 173.408L71.0207 171.68H74.9727L76.5407 173.408H69.3727ZM68.9087 165.552L70.6207 167.216V171.136L68.9087 172.704V165.552ZM70.7487 166.128C70.354 165.819 69.9807 165.525 69.6287 165.248L70.7487 164.4H75.1167L76.2367 165.248L75.1167 166.128H70.7487ZM69.3567 157.152H76.4927L74.9407 158.88H70.9887L69.3567 157.152ZM68.8607 164.992V157.84L70.5727 159.392V163.36L68.8607 164.992ZM81.9296 173.408L83.5776 171.68H87.5296L89.0816 173.408H81.9296ZM81.4496 165.552L83.1776 167.216V171.136L81.4496 172.704V165.552ZM89.5936 172.704L87.8656 171.056V167.12L89.5936 165.552V172.704ZM83.3056 166.128C82.9322 165.829 82.5536 165.536 82.1696 165.248L83.3056 164.4H87.6736L88.7936 165.248L87.6736 166.128H83.3056ZM81.9136 157.152H89.0656L87.4816 158.88H83.5616L81.9136 157.152ZM81.4016 164.992V157.84L83.1296 159.392V163.36L81.4016 164.992ZM99.1745 172.704L97.4465 171.056V167.12L99.1745 165.552V172.704ZM99.1425 157.84V164.992L97.4145 163.44V159.488L99.1425 157.84ZM107.523 173.408L109.171 171.68H113.123L114.675 173.408H107.523ZM107.043 165.552L108.771 167.216V171.136L107.043 172.704V165.552ZM115.187 172.704L113.459 171.056V167.12L115.187 165.552V172.704ZM106.995 164.992V157.84L108.723 159.392V163.36L106.995 164.992ZM115.139 157.84V164.992L113.411 163.44V159.488L115.139 157.84ZM111.539 154.656L113.283 155.68L112.435 157.152H114.659L113.075 158.88H111.427L111.315 159.072L110.979 158.88H109.155L107.507 157.152H110.099L111.539 154.656ZM119.04 164.192V157.008L120.768 158.592V162.544L119.04 164.192ZM128.784 157.008V164.192L127.056 162.608V158.672L128.784 157.008ZM118.992 164.736L120.72 166.384V170.336L118.992 171.904V164.736ZM128.736 171.904L127.008 170.24V166.304L128.736 164.736V171.904ZM121.584 161.744V158.496L126.128 166.144V169.408L121.584 161.744ZM146.154 173.408L147.802 171.68H151.754L153.322 173.408H146.154ZM145.69 165.552L147.402 167.216V171.136L145.69 172.704V165.552ZM147.53 166.128C147.135 165.819 146.762 165.525 146.41 165.248L147.53 164.4H151.898L153.018 165.248L151.898 166.128H147.53ZM146.138 157.152H153.274L151.722 158.88H147.77L146.138 157.152ZM145.642 164.992V157.84L147.354 159.392V163.36L145.642 164.992ZM157.431 164.192V157.008L159.159 158.592V162.544L157.431 164.192ZM167.175 157.008V164.192L165.447 162.608V158.672L167.175 157.008ZM157.383 164.736L159.111 166.384V170.336L157.383 171.904V164.736ZM167.127 171.904L165.399 170.24V166.304L167.127 164.736V171.904ZM159.975 161.744V158.496L164.519 166.144V169.408L159.975 161.744ZM175.956 172.704L174.228 171.056V167.12L175.956 165.552V172.704ZM170.164 158.592C169.79 158.293 169.417 158.011 169.044 157.744L170.164 156.88H179.988L181.108 157.744L179.988 158.592H175.908V164.992L174.18 163.44V159.488L175.124 158.592H170.164ZM185.569 167.6V171.136L183.841 172.704V165.552L185.569 167.6ZM189.137 167.184L191.601 169.776L191.425 172.08C189.899 170.48 189.121 169.664 189.089 169.632C189.067 169.6 189.035 169.568 188.993 169.536C188.95 169.504 188.918 169.472 188.897 169.44L186.481 166.912L189.137 167.184ZM183.841 165.552L185.569 167.216V171.136L183.841 172.704V165.552ZM185.681 166.128C185.307 165.819 184.934 165.525 184.561 165.248L185.681 164.4H190.065L191.185 165.248L190.065 166.128H185.681ZM184.305 157.152H191.441L189.889 158.88H185.937L184.305 157.152ZM183.793 164.992V157.84L185.521 159.392V163.36L183.793 164.992ZM191.953 157.84V164.992L190.225 163.44V159.488L191.953 157.84ZM186.481 166.912H188.881C189.233 167.285 189.734 167.819 190.385 168.512C191.046 169.195 191.451 169.616 191.601 169.776L191.425 172.08C189.899 170.48 189.121 169.664 189.089 169.632C189.067 169.6 189.035 169.568 188.993 169.536C188.95 169.504 188.918 169.472 188.897 169.44L186.481 166.912ZM197.341 173.408L198.989 171.68H202.941L204.509 173.408H197.341ZM196.877 165.552L198.589 167.216V171.136L196.877 172.704V165.552ZM198.717 166.128C198.323 165.819 197.949 165.525 197.597 165.248L198.717 164.4H203.085L204.205 165.248L203.085 166.128H198.717ZM197.325 157.152H204.461L202.909 158.88H198.957L197.325 157.152ZM196.829 164.992V157.84L198.541 159.392V163.36L196.829 164.992ZM222.935 173.408L224.583 171.68H228.535L230.103 173.408H222.935ZM222.471 165.552L224.183 167.216V171.136L222.471 172.704V165.552ZM222.423 164.992V157.84L224.135 159.392V163.36L222.423 164.992ZM235.012 165.552L236.74 167.216V171.136L235.012 172.704V165.552ZM243.156 172.704L241.428 171.056V167.12L243.156 165.552V172.704ZM236.868 166.128C236.495 165.829 236.116 165.536 235.732 165.248L236.868 164.4H241.236L242.356 165.248L241.236 166.128H236.868ZM235.476 157.152H242.628L241.044 158.88H237.124L235.476 157.152ZM234.964 164.992V157.84L236.692 159.392V163.36L234.964 164.992ZM243.108 157.84V164.992L241.38 163.44V159.488L243.108 157.84ZM248.289 173.408L249.937 171.68H253.889L255.441 173.408H248.289ZM255.953 172.704L254.225 171.056V167.12L255.953 165.552V172.704ZM249.665 166.128C249.292 165.829 248.913 165.536 248.529 165.248L249.665 164.4H254.033L255.153 165.248L254.033 166.128H249.665ZM248.273 157.152H255.425L253.841 158.88H249.921L248.273 157.152ZM247.761 164.992V157.84L249.489 159.392V163.36L247.761 164.992ZM273.883 173.408L275.531 171.68H279.483L281.035 173.408H273.883ZM273.403 165.552L275.131 167.216V171.136L273.403 172.704V165.552ZM281.547 172.704L279.819 171.056V167.12L281.547 165.552V172.704ZM273.355 164.992V157.84L275.083 159.392V163.36L273.355 164.992ZM281.499 157.84V164.992L279.771 163.44V159.488L281.499 157.84ZM277.899 154.656L279.643 155.68L278.795 157.152H281.019L279.435 158.88H277.787L277.675 159.072L277.339 158.88H275.515L273.867 157.152H276.459L277.899 154.656ZM287.944 167.6V171.136L286.216 172.704V165.552L287.944 167.6ZM291.512 167.184L293.976 169.776L293.8 172.08C292.274 170.48 291.496 169.664 291.464 169.632C291.442 169.6 291.41 169.568 291.368 169.536C291.325 169.504 291.293 169.472 291.272 169.44L288.856 166.912L291.512 167.184ZM286.216 165.552L287.944 167.216V171.136L286.216 172.704V165.552ZM288.056 166.128C287.682 165.819 287.309 165.525 286.936 165.248L288.056 164.4H292.44L293.56 165.248L292.44 166.128H288.056ZM286.68 157.152H293.816L292.264 158.88H288.312L286.68 157.152ZM286.168 164.992V157.84L287.896 159.392V163.36L286.168 164.992ZM294.328 157.84V164.992L292.6 163.44V159.488L294.328 157.84ZM288.856 166.912H291.256C291.608 167.285 292.109 167.819 292.76 168.512C293.421 169.195 293.826 169.616 293.976 169.776L293.8 172.08C292.274 170.48 291.496 169.664 291.464 169.632C291.442 169.6 291.41 169.568 291.368 169.536C291.325 169.504 291.293 169.472 291.272 169.44L288.856 166.912ZM299.476 173.408L301.124 171.68H305.076L306.628 173.408H299.476ZM298.996 165.552L300.724 167.216V171.136L298.996 172.704V165.552ZM307.14 172.704L305.412 171.056V167.12L307.14 165.552V172.704ZM300.852 166.128C300.479 165.829 300.1 165.536 299.716 165.248L300.852 164.4H305.22L306.34 165.248L305.22 166.128H300.852ZM299.46 157.152H306.612L305.028 158.88H301.108L299.46 157.152ZM298.948 164.992V157.84L300.676 159.392V163.36L298.948 164.992ZM307.092 157.84V164.992L305.364 163.44V159.488L307.092 157.84ZM316.721 172.704L314.993 171.056V167.12L316.721 165.552V172.704ZM316.689 157.84V164.992L314.961 163.44V159.488L316.689 157.84ZM329.518 172.704L327.79 171.056V167.12L329.518 165.552V172.704ZM323.726 158.592C323.353 158.293 322.98 158.011 322.606 157.744L323.726 156.88H333.55L334.67 157.744L333.55 158.592H329.47V164.992L327.742 163.44V159.488L328.686 158.592H323.726ZM337.387 165.552L339.115 167.216V171.136L337.387 172.704V165.552ZM345.531 172.704L343.803 171.056V167.12L345.531 165.552V172.704ZM339.243 166.128C338.87 165.829 338.491 165.536 338.107 165.248L339.243 164.4H343.611L344.731 165.248L343.611 166.128H339.243ZM337.851 157.152H345.003L343.419 158.88H339.499L337.851 157.152ZM337.339 164.992V157.84L339.067 159.392V163.36L337.339 164.992ZM345.483 157.84V164.992L343.755 163.44V159.488L345.483 157.84ZM350.664 173.408L352.312 171.68H356.264L357.816 173.408H350.664ZM358.328 172.704L356.6 171.056V167.12L358.328 165.552V172.704ZM352.04 166.128C351.667 165.829 351.288 165.536 350.904 165.248L352.04 164.4H356.408L357.528 165.248L356.408 166.128H352.04ZM350.648 157.152H357.8L356.216 158.88H352.296L350.648 157.152ZM350.136 164.992V157.84L351.864 159.392V163.36L350.136 164.992ZM376.258 173.408L377.906 171.68H381.858L383.41 173.408H376.258ZM375.778 165.552L377.506 167.216V171.136L375.778 172.704V165.552ZM383.922 172.704L382.194 171.056V167.12L383.922 165.552V172.704ZM376.242 157.152H383.394L381.81 158.88H377.89L376.242 157.152ZM375.73 164.992V157.84L377.458 159.392V163.36L375.73 164.992ZM383.874 157.84V164.992L382.146 163.44V159.488L383.874 157.84ZM389.295 173.408L390.943 171.68H394.895L396.463 173.408H389.295ZM388.831 165.552L390.543 167.216V171.136L388.831 172.704V165.552ZM390.671 166.128C390.276 165.819 389.903 165.525 389.551 165.248L390.671 164.4H395.039L396.159 165.248L395.039 166.128H390.671ZM389.279 157.152H396.415L394.863 158.88H390.911L389.279 157.152ZM388.783 164.992V157.84L390.495 159.392V163.36L388.783 164.992ZM131.104 186.552L132.832 188.216V192.136L131.104 193.704V186.552ZM140.848 193.704L139.12 192.056V188.12L140.848 186.552V193.704ZM135.616 182.456L135.696 183.16L134.304 183.032L131.088 180.04L130.864 178.664L132.256 178.792L135.472 181.752L135.616 182.456ZM131.072 185.992V180.76L132.8 182.328V184.36L131.072 185.992ZM140.816 180.76V185.992L139.088 184.44V182.408L140.816 180.76ZM136.16 182.456L136.304 181.752L139.52 178.792L140.912 178.664L140.688 180.04L137.472 183.032L136.08 183.16L136.16 182.456ZM144.637 186.552L146.365 188.216V192.136L144.637 193.704V186.552ZM152.781 193.704L151.053 192.056V188.12L152.781 186.552V193.704ZM146.493 187.128C146.12 186.829 145.741 186.536 145.357 186.248L146.493 185.4H150.861L151.981 186.248L150.861 187.128H146.493ZM145.101 178.152H152.253L150.669 179.88H146.749L145.101 178.152ZM144.589 185.992V178.84L146.317 180.392V184.36L144.589 185.992ZM152.733 178.84V185.992L151.005 184.44V180.488L152.733 178.84ZM159.178 188.6V192.136L157.45 193.704V186.552L159.178 188.6ZM162.746 188.184L165.21 190.776L165.034 193.08C163.509 191.48 162.73 190.664 162.698 190.632C162.677 190.6 162.645 190.568 162.602 190.536C162.559 190.504 162.527 190.472 162.506 190.44L160.09 187.912L162.746 188.184ZM157.45 186.552L159.178 188.216V192.136L157.45 193.704V186.552ZM159.29 187.128C158.917 186.819 158.543 186.525 158.17 186.248L159.29 185.4H163.674L164.794 186.248L163.674 187.128H159.29ZM157.914 178.152H165.05L163.498 179.88H159.546L157.914 178.152ZM157.402 185.992V178.84L159.13 180.392V184.36L157.402 185.992ZM165.562 178.84V185.992L163.834 184.44V180.488L165.562 178.84ZM160.09 187.912H162.49C162.842 188.285 163.343 188.819 163.994 189.512C164.655 190.195 165.061 190.616 165.21 190.776L165.034 193.08C163.509 191.48 162.73 190.664 162.698 190.632C162.677 190.6 162.645 190.568 162.602 190.536C162.559 190.504 162.527 190.472 162.506 190.44L160.09 187.912ZM175.159 193.704L173.431 192.056V188.12L175.159 186.552V193.704ZM169.367 179.592C168.993 179.293 168.62 179.011 168.247 178.744L169.367 177.88H179.191L180.311 178.744L179.191 179.592H175.111V185.992L173.383 184.44V180.488L174.327 179.592H169.367ZM183.748 194.408L185.396 192.68H189.348L190.916 194.408H183.748ZM183.284 186.552L184.996 188.216V192.136L183.284 193.704V186.552ZM185.124 187.128C184.729 186.819 184.356 186.525 184.004 186.248L185.124 185.4H189.492L190.612 186.248L189.492 187.128H185.124ZM183.732 178.152H190.868L189.316 179.88H185.364L183.732 178.152ZM183.236 185.992V178.84L184.948 180.392V184.36L183.236 185.992ZM216.221 181.48L209.117 193.16V190.2L212.285 185L213.021 185.784V183.8L216.221 178.552V181.48ZM212.285 185L213.021 183.8V182.84L209.117 178.552V181.624L212.285 185ZM240.583 193.704L238.855 192.056V188.12L240.583 186.552V193.704ZM240.551 178.84V185.992L238.839 184.44V180.488L240.551 178.84ZM238.247 192.472L239.895 194.2H235.943L237.511 192.472H238.247ZM247.492 194.408L249.14 192.68H253.092L254.644 194.408H247.492ZM247.012 186.552L248.74 188.216V192.136L247.012 193.704V186.552ZM255.156 193.704L253.428 192.056V188.12L255.156 186.552V193.704ZM246.964 185.992V178.84L248.692 180.392V184.36L246.964 185.992ZM255.108 178.84V185.992L253.38 184.44V180.488L255.108 178.84ZM251.508 175.656L253.252 176.68L251.284 180.072L249.54 179.08L251.508 175.656ZM259.825 186.552L261.553 188.216V192.136L259.825 193.704V186.552ZM261.665 187.128C261.292 186.819 260.918 186.525 260.545 186.248L261.665 185.4H266.049L267.169 186.248L266.049 187.128H261.665ZM260.289 178.152H267.425L265.873 179.88H261.921L260.289 178.152ZM259.777 185.992V178.84L261.505 180.392V184.36L259.777 185.992ZM267.937 178.84V185.992L266.209 184.44V180.488L267.937 178.84ZM277.534 193.704L275.806 192.056V188.12L277.534 186.552V193.704ZM277.502 178.84V185.992L275.774 184.44V180.488L277.502 178.84ZM290.331 193.704L288.603 192.056V188.12L290.331 186.552V193.704ZM284.539 179.592C284.165 179.293 283.792 179.011 283.419 178.744L284.539 177.88H294.363L295.483 178.744L294.363 179.592H290.283V185.992L288.555 184.44V180.488L289.499 179.592H284.539ZM298.92 194.408L300.568 192.68H304.52L306.088 194.408H298.92ZM298.456 186.552L300.168 188.216V192.136L298.456 193.704V186.552ZM300.296 187.128C299.901 186.819 299.528 186.525 299.176 186.248L300.296 185.4H304.664L305.784 186.248L304.664 187.128H300.296ZM298.904 178.152H306.04L304.488 179.88H300.536L298.904 178.152ZM298.408 185.992V178.84L300.12 180.392V184.36L298.408 185.992ZM312.74 188.6V192.136L311.012 193.704V186.552L312.74 188.6ZM316.308 188.184L318.772 190.776L318.596 193.08C317.071 191.48 316.292 190.664 316.26 190.632C316.239 190.6 316.207 190.568 316.164 190.536C316.122 190.504 316.09 190.472 316.068 190.44L313.652 187.912L316.308 188.184ZM311.012 186.552L312.74 188.216V192.136L311.012 193.704V186.552ZM312.852 187.128C312.479 186.819 312.106 186.525 311.732 186.248L312.852 185.4H317.236L318.356 186.248L317.236 187.128H312.852ZM311.476 178.152H318.612L317.06 179.88H313.108L311.476 178.152ZM310.964 185.992V178.84L312.692 180.392V184.36L310.964 185.992ZM319.124 178.84V185.992L317.396 184.44V180.488L319.124 178.84ZM313.652 187.912H316.052C316.404 188.285 316.906 188.819 317.556 189.512C318.218 190.195 318.623 190.616 318.772 190.776L318.596 193.08C317.071 191.48 316.292 190.664 316.26 190.632C316.239 190.6 316.207 190.568 316.164 190.536C316.122 190.504 316.09 190.472 316.068 190.44L313.652 187.912ZM321.441 192.04H323.457V194.088H321.441V192.04Z" fill="#25063F"/>
<g filter="url(#filter0_d_173_2054)">
<path d="M226.262 282C212.821 282 201.887 292.936 201.887 306.375C201.887 319.835 212.802 330.75 226.262 330.75C239.702 330.75 250.637 319.815 250.637 306.375C250.637 292.914 239.723 282 226.262 282ZM226.262 318.68C223.34 318.68 220.538 317.519 218.472 315.453C216.407 313.387 215.246 310.586 215.246 307.664C215.246 304.743 216.407 301.941 218.472 299.875C220.538 297.809 223.34 296.648 226.262 296.648H226.755L225.102 294.996C224.794 294.688 224.621 294.271 224.621 293.836C224.621 293.401 224.794 292.983 225.102 292.676C225.409 292.368 225.827 292.195 226.262 292.195C226.697 292.195 227.114 292.368 227.422 292.676L232.109 297.363C232.262 297.516 232.383 297.696 232.465 297.896C232.548 298.095 232.59 298.308 232.59 298.523C232.59 298.739 232.548 298.952 232.465 299.151C232.383 299.35 232.262 299.531 232.109 299.684L227.422 304.371C227.114 304.679 226.697 304.852 226.262 304.852C225.827 304.852 225.409 304.679 225.102 304.371C224.794 304.063 224.621 303.646 224.621 303.211C224.621 302.776 224.794 302.358 225.102 302.051L227.211 299.941C226.932 299.93 226.613 299.93 226.262 299.93C224.732 299.93 223.237 300.383 221.965 301.233C220.693 302.083 219.701 303.291 219.116 304.704C218.531 306.118 218.378 307.673 218.676 309.173C218.974 310.673 219.711 312.051 220.793 313.133C221.874 314.215 223.252 314.951 224.753 315.25C226.253 315.548 227.808 315.395 229.222 314.81C230.635 314.224 231.843 313.233 232.693 311.961C233.542 310.689 233.996 309.194 233.996 307.664C233.996 307.229 234.169 306.812 234.477 306.504C234.784 306.196 235.202 306.023 235.637 306.023C236.072 306.023 236.489 306.196 236.797 306.504C237.104 306.812 237.277 307.229 237.277 307.664C237.274 310.585 236.112 313.384 234.047 315.45C231.982 317.515 229.182 318.676 226.262 318.68Z" fill="white"/>
</g>
<defs>
<filter id="filter0_d_173_2054" x="192.887" y="277" width="66.75" height="66.75" filterUnits="userSpaceOnUse" color-interpolation-filters="sRGB">
<feFlood flood-opacity="0" result="BackgroundImageFix"/>
<feColorMatrix in="SourceAlpha" type="matrix" values="0 0 0 0 0 0 0 0 0 0 0 0 0 0 0 0 0 0 127 0" result="hardAlpha"/>
<feOffset dy="4"/>
<feGaussianBlur stdDeviation="4.5"/>
<feComposite in2="hardAlpha" operator="out"/>
<feColorMatrix type="matrix" values="0 0 0 0 1 0 0 0 0 1 0 0 0 0 1 0 0 0 0.25 0"/>
<feBlend mode="normal" in2="BackgroundImageFix" result="effect1_dropShadow_173_2054"/>
<feBlend mode="normal" in="SourceGraphic" in2="effect1_dropShadow_173_2054" result="shape"/>
</filter>
<linearGradient id="paint0_linear_173_2054" x1="226.262" y1="0" x2="226.262" y2="266" gradientUnits="userSpaceOnUse">
<stop stop-color="white"/>
<stop offset="1" stop-color="white" stop-opacity="0.33"/>
</linearGradient>
</defs>
</svg>
